<svg width="235" height="39" viewBox="0 0 235 39" fill="none" xmlns="http://www.w3.org/2000/svg">
<g id="Group">
<path id="Vector" d="M5.85001 0.73C5.85001 0.73 5.78001 0.820001 5.77001 0.890001L0.800019 29.09C-0.049981 33.89 3.16001 37.78 7.96001 37.78L12.97 9.36C13.81 4.59 10.63 0.720001 5.85001 0.720001V0.73Z" fill="white"/>
<path id="Vector_2" d="M74.65 9.37001L69.6 37.79C74.4 37.79 78.98 33.9 79.83 29.1L84.83 0.730011C80.06 0.730011 75.5 4.60001 74.65 9.37001Z" fill="white"/>
<g id="Group_2">
<path id="Vector_3" d="M150.15 8.71001L144.96 37.79C149.4 37.79 153.63 34.2 154.41 29.76L159.55 0.730011C155.14 0.730011 150.94 4.30001 150.15 8.71001Z" fill="white"/>
<path id="Vector_4" d="M185.23 10.5C185.62 9.95 185.89 9.33 186 8.7V8.67C186.78 4.28 183.85 0.720001 179.46 0.720001L178.72 4.61C178.68 4.85 178.62 5.08 178.56 5.32C177.28 10.21 172.35 13.88 167.42 13.95L163.84 14L162.43 21.98H165.3C170.6 21.94 174.53 25.92 173.97 31.2C173.94 31.44 173.91 31.68 173.87 31.93L172.84 37.79C177.28 37.79 181.5 34.19 182.29 29.76C182.87 26.5 181.96 23.37 179.73 21.39C179.01 20.75 178.17 20.18 177.2 19.68C176.55 19.34 176.24 18.61 176.41 17.83C176.55 17.16 177.06 16.55 177.72 16.28C180.94 14.96 183.45 13.03 185.24 10.51L185.23 10.5Z" fill="white"/>
</g>
<g id="Group_3">
<path id="Vector_5" d="M29.22 0.730011L24.18 29.1C23.33 33.9 26.53 37.79 31.33 37.79L31.96 34.23C32.23 32.73 32.52 31.07 32.84 29.26L33.84 23.61C34.18 21.65 34.52 19.77 34.84 17.96C35.16 16.15 35.45 14.49 35.72 12.99C35.99 11.49 36.21 10.3 36.4 9.43001L37.93 0.740011H29.24L29.22 0.730011Z" fill="white"/>
<path id="Vector_6" d="M50.84 0.730011H42.98L41.45 9.42001H46.75C50.4 9.42001 52.84 12.38 52.19 16.03L48.35 37.79C53.15 37.79 57.73 33.9 58.58 29.1L61.33 13.49C62.57 6.45001 57.87 0.740011 50.83 0.740011L50.84 0.730011Z" fill="white"/>
</g>
<g id="Group_4">
<path id="Vector_7" d="M209.01 15.83C206.92 15.83 205.53 14.14 205.89 12.05L206.56 8.27C207.3 4.1 204.51 0.720001 200.34 0.720001L197.68 15.82C196.94 19.99 199.73 23.37 203.9 23.37H218.94L220.27 15.82H209.01V15.83Z" fill="white"/>
<path id="Vector_8" d="M228.02 0.730011L223.37 27.12C223 29.22 220.99 30.93 218.89 30.93H202.56C198.39 30.93 194.41 34.31 193.68 38.48H221.36C225.53 38.48 229.51 35.1 230.24 30.93L234.23 8.28001C234.97 4.11001 232.18 0.730011 228.01 0.730011H228.02Z" fill="white"/>
</g>
<g id="Group_5">
<path id="Vector_9" d="M105.79 15.1C106.31 12.13 107.26 9.42999 111.79 9.42999H127.55C132.35 9.42999 136.93 5.53999 137.78 0.73999H114.48C106.31 0.73999 98.51 7.35999 97.05 15.53L95.69 23.13H111.46C115.87 23.13 120.08 19.55 120.86 15.14L105.8 15.11L105.79 15.1Z" fill="white"/>
<path id="Vector_10" d="M125.13 23.12C124.52 26.43 121.35 29.1 118.04 29.1H103.53C98.73 29.1 94.15 32.99 93.3 37.79C99.65 37.75 105.98 37.75 112.3 37.76C113.35 37.76 114.39 37.76 115.44 37.76C124.16 37.77 132.48 30.69 134.02 21.97L135.22 15.14H134.5C130.1 15.14 125.89 18.7 125.11 23.11L125.13 23.12Z" fill="white"/>
</g>
</g>
</svg>
