<svg width="68" height="66" viewBox="0 0 68 66" fill="none" xmlns="http://www.w3.org/2000/svg">
<g id="Group">
<path id="Vector" d="M60.65 14.09H30.1C29.21 14.11 28.33 14.22 27.46 14.36C26.93 14.44 26.41 14.55 25.89 14.68C25.49 14.78 25.1 14.88 24.71 15C23.97 15.23 23.24 15.5 22.54 15.81C22.22 15.95 21.9 16.1 21.59 16.25C21.39 16.35 21.19 16.45 20.99 16.56C20.6 16.77 20.21 17 19.83 17.24C19.45 17.48 19.08 17.73 18.72 18C18.36 18.27 18.01 18.54 17.66 18.83C17.49 18.97 17.32 19.12 17.15 19.27C15.98 20.32 14.93 21.52 14.03 22.84C13.77 23.22 13.52 23.6 13.29 24C13.06 24.4 12.83 24.8 12.63 25.22L7.16998 36.13H34.32C34.49 36.13 34.66 36.13 34.83 36.11C34.84 36.11 34.86 36.11 34.87 36.11C35.04 36.1 35.21 36.08 35.37 36.05C35.53 36.03 35.69 36 35.85 35.97C36.28 35.88 36.7 35.75 37.11 35.59C37.22 35.55 37.33 35.5 37.43 35.45C37.71 35.32 37.98 35.18 38.24 35.02C38.42 34.91 38.6 34.79 38.77 34.66C38.81 34.63 38.84 34.61 38.88 34.58C39.07 34.43 39.26 34.27 39.43 34.1C39.6 33.94 39.75 33.77 39.9 33.6C40.01 33.47 40.12 33.34 40.22 33.2C40.35 33.03 40.46 32.85 40.57 32.67C40.63 32.56 40.7 32.45 40.75 32.34C40.76 32.32 40.78 32.29 40.79 32.26C40.82 32.2 40.85 32.14 40.88 32.08C40.93 31.98 40.99 31.87 41.05 31.75C41.17 31.52 41.3 31.25 41.43 30.98C41.47 30.89 41.52 30.8 41.56 30.71C41.6 30.62 41.65 30.53 41.69 30.44C41.82 30.18 41.94 29.93 42.04 29.72C42.07 29.65 42.11 29.59 42.14 29.53C42.17 29.47 42.2 29.42 42.22 29.37C42.29 29.23 42.33 29.14 42.33 29.14H20.15C20.34 28.38 20.68 27.63 21.15 26.91C21.46 26.43 21.82 25.97 22.23 25.52C22.53 25.19 22.86 24.87 23.2 24.56C23.43 24.36 23.67 24.16 23.91 23.97C24.03 23.88 24.16 23.78 24.28 23.69C24.53 23.51 24.79 23.33 25.05 23.17C25.31 23 25.57 22.85 25.84 22.7C26.24 22.48 26.65 22.28 27.06 22.11C28.28 21.59 30.02 21.29 31.13 21.29H55.55C55.7 21.29 55.85 21.29 56 21.29C56.3 21.29 56.6 21.26 56.89 21.23C57.33 21.19 57.77 21.12 58.2 21.04C58.41 21 58.62 20.95 58.83 20.9C59.04 20.85 59.26 20.79 59.47 20.73C59.8 20.63 60.13 20.52 60.45 20.39C60.74 20.28 61.02 20.16 61.3 20.03C61.43 19.97 61.55 19.91 61.68 19.85C61.95 19.71 62.22 19.57 62.48 19.41C62.73 19.26 62.98 19.1 63.22 18.94C63.27 18.91 63.32 18.88 63.36 18.84C63.49 18.75 63.63 18.65 63.76 18.55C64.06 18.32 64.36 18.08 64.64 17.82C64.76 17.71 64.88 17.6 65 17.49C65.16 17.34 65.31 17.18 65.46 17.02C65.65 16.81 65.84 16.6 66.03 16.38C66.13 16.26 66.24 16.13 66.34 16C66.47 15.83 66.6 15.66 66.72 15.49C66.89 15.25 67.06 15 67.22 14.74L67.63 14.09H60.62H60.65Z" fill="white"/>
<path id="Vector_2" d="M37.55 51.13C37.78 51.13 38.01 51.11 38.24 51.1C38.93 51.06 39.61 50.96 40.29 50.85C40.74 50.78 41.19 50.69 41.63 50.58C42.51 50.37 43.38 50.11 44.22 49.78C44.85 49.54 45.47 49.27 46.07 48.96C46.27 48.86 46.47 48.76 46.67 48.65C47.46 48.22 48.21 47.74 48.94 47.21C49.12 47.08 49.3 46.94 49.48 46.8C49.83 46.52 50.18 46.23 50.51 45.93C50.68 45.78 50.84 45.63 51 45.47C51.24 45.24 51.47 45 51.7 44.75C51.93 44.5 52.16 44.25 52.39 43.99C53.41 42.78 54.31 41.44 55.03 39.98L60.49 29.07H55.94C55.2 29.07 54.49 29.17 53.8 29.37C53.63 29.42 53.46 29.47 53.29 29.54C52.87 29.69 52.47 29.88 52.09 30.1C51.86 30.23 51.64 30.38 51.42 30.53C51.29 30.62 51.16 30.72 51.04 30.82C51.02 30.84 50.99 30.86 50.97 30.88C50.88 30.96 50.79 31.03 50.7 31.11C50.6 31.2 50.5 31.29 50.41 31.39C50.32 31.48 50.23 31.58 50.14 31.68C49.99 31.85 49.85 32.02 49.71 32.21C49.66 32.28 49.6 32.36 49.55 32.43C49.4 32.65 49.25 32.89 49.12 33.13C49.08 33.21 49.03 33.29 48.99 33.37L46.88 37.59C45.09 41.01 41 43.91 37 43.91H12.27C11.09 43.91 9.93001 44.06 8.81001 44.34C8.50001 44.42 8.20001 44.51 7.90001 44.61C7.62001 44.7 7.35001 44.8 7.08001 44.91C6.81001 45.02 6.54001 45.14 6.28001 45.26C5.88001 45.45 5.50001 45.65 5.12001 45.88C4.92001 46 4.72001 46.13 4.53001 46.26C4.45001 46.31 4.38001 46.36 4.30001 46.41C4.21001 46.47 4.11001 46.54 4.02001 46.61C3.77001 46.79 3.52001 46.99 3.28001 47.19C3.07001 47.36 2.87001 47.55 2.67001 47.73C2.46001 47.93 2.26001 48.13 2.06001 48.34C1.83001 48.58 1.62001 48.83 1.41001 49.09C1.24001 49.3 1.08001 49.51 0.92001 49.73C0.75001 49.97 0.58001 50.22 0.42001 50.48L0.0100098 51.13H37.56H37.55Z" fill="white"/>
<path id="Vector_3" d="M64.3 21.02C64.01 21.21 63.71 21.4 63.4 21.57C62.25 22.22 61.03 22.72 59.76 23.06C60.2 24.25 60.56 25.49 60.83 26.75C61.22 28.54 61.43 30.39 61.45 32.28C61.45 32.38 61.45 32.49 61.45 32.59C61.45 47.83 49.05 60.23 33.81 60.23C26.88 60.23 20.53 57.66 15.67 53.43H8.75C14.74 60.62 23.75 65.2 33.81 65.2C51.79 65.2 66.42 50.57 66.42 32.59C66.42 28.51 65.66 24.61 64.29 21L64.3 21.02Z" fill="white"/>
<path id="Vector_4" d="M4.37003 43.63C5.49003 43.01 6.68003 42.53 7.91003 42.19C7.46003 40.98 7.10003 39.74 6.82003 38.46C6.43003 36.67 6.22003 34.82 6.20003 32.93C6.20003 32.82 6.20003 32.72 6.20003 32.62C6.20003 17.38 18.6 4.98 33.84 4.98C40.77 4.98 47.12 7.55 51.98 11.78H58.9C52.9 4.58 43.89 0 33.83 0C15.85 0 1.22003 14.63 1.22003 32.61C1.22003 36.7 1.98003 40.62 3.37003 44.24C3.70003 44.03 4.03003 43.83 4.37003 43.64V43.63Z" fill="white"/>
</g>
</svg>
